<?xml version="1.0" encoding="UTF-8"?> <svg xmlns="http://www.w3.org/2000/svg" width="153" height="38" viewBox="0 0 153 38" fill="none"><path d="M22.95 18.6255C22.95 24.9028 17.8245 30 11.475 30C5.1255 30 0 24.9028 0 18.6255C0 12.3483 5.1255 7.25109 11.475 7.25109C17.8245 7.25109 22.95 12.3483 22.95 18.6255ZM35.5215 18.6255C35.5215 24.5262 32.946 29.3221 29.784 29.3221C26.622 29.3221 24.0465 24.5262 24.0465 18.6255C24.0465 12.7249 26.622 7.92903 29.784 7.92903C32.946 7.92903 35.5215 12.6998 35.5215 18.6255ZM40.6725 18.6255C40.6725 23.9236 39.78 28.2173 38.658 28.2173C37.536 28.2173 36.6435 23.9236 36.6435 18.6255C36.6435 13.3275 37.536 9.03384 38.658 9.03384C39.78 9.03384 40.6725 13.3275 40.6725 18.6255ZM72.318 8.23035H72.3435V7.97926H65.8155L59.772 22.0153L53.703 8.00437H46.665V8.25546H46.6905C47.889 8.53166 48.4755 8.90829 48.4755 10.3395V27.012C48.4755 28.4432 47.8635 28.8199 46.6905 29.0961H46.665V29.3472H51.4335V29.0961H51.408C50.2095 28.8199 49.623 28.4432 49.623 27.012V11.3188L57.4005 29.3472H57.834L65.841 10.8166V27.4389C65.739 28.5688 65.1525 28.9203 64.056 29.1463H64.0305V29.3974H72.3435V29.1463H72.318C71.247 28.8952 70.635 28.5688 70.533 27.4389V10.3646C70.533 8.9083 71.145 8.50655 72.318 8.23035ZM76.1175 19.2784C76.245 16.2904 77.3415 14.131 79.1775 14.0808C79.7385 14.0808 80.223 14.2817 80.58 14.6332C81.3705 15.3865 81.7275 16.9432 81.6765 19.2784H76.1175ZM76.041 20.107H85.782V20.0568C85.7565 17.7718 85.0935 15.9891 83.793 14.7587C82.671 13.7041 81.0135 13.1266 79.254 13.1266H79.203C78.285 13.1266 77.1885 13.3526 76.398 13.7293C75.5055 14.131 74.715 14.7587 74.052 15.5622C72.981 16.8679 72.3435 18.6004 72.1905 20.5841C72.1905 20.6343 72.1905 20.7096 72.165 20.7598C72.165 20.81 72.165 20.8603 72.165 20.9356C72.1395 21.2118 72.1395 21.488 72.1395 21.7642C72.2415 26.2336 74.6895 29.7991 79.05 29.7991C82.875 29.7991 85.0935 27.0622 85.6545 23.3712L85.374 23.2707C84.405 25.2544 82.6455 26.4596 80.6565 26.309C77.928 26.1081 75.837 23.3963 76.041 20.107ZM96.7725 26.1583C96.441 26.9116 95.778 27.3133 94.8855 27.3133C93.993 27.3133 93.177 26.7107 92.5905 25.6059C91.9785 24.4258 91.647 22.7686 91.647 20.7849C91.647 16.6921 92.9475 14.0306 94.962 14.0306C95.8035 14.0306 96.4665 14.4323 96.7725 15.1605V26.1583V26.1583ZM103.249 29.0961C102.051 28.8199 101.464 28.4181 101.464 26.9116V7L94.2225 9.10917V9.36026H94.2735C95.268 9.28493 95.9565 9.41048 96.339 9.76201C96.645 10.0382 96.798 10.4651 96.798 11.0677V13.8046C96.084 13.3526 95.2425 13.1266 94.197 13.1266C92.106 13.1266 90.1935 13.9803 88.8165 15.5622C87.3885 17.1943 86.6235 19.429 86.6235 22.0404C86.6235 26.6856 88.944 29.7991 92.3865 29.7991C94.401 29.7991 96.033 28.7194 96.7725 26.8614V29.3221H103.275V29.071L103.249 29.0961ZM109.446 9.71179C109.446 8.25546 108.349 7.17576 106.87 7.17576C105.417 7.17576 104.269 8.28057 104.269 9.71179C104.269 11.143 105.417 12.2478 106.87 12.2478C108.324 12.2478 109.446 11.1681 109.446 9.71179ZM111.154 29.0961C109.956 28.8199 109.369 28.4181 109.369 26.9116V13.202L102.867 15.0349V15.286H102.918C104.32 15.4116 104.703 15.8886 104.703 17.4956V29.3472H111.18V29.0961H111.154ZM127.78 29.0961C126.582 28.8199 125.995 28.4181 125.995 26.9116V13.202L119.824 14.9847V15.2358H119.85C120.997 15.3614 121.329 15.8635 121.329 17.4705V26.1332C120.946 26.8865 120.232 27.3133 119.365 27.3635C117.963 27.3635 117.172 26.4345 117.172 24.7271V13.202L110.67 15.0349V15.286H110.721C112.124 15.4116 112.506 15.8886 112.506 17.4956V24.8275C112.506 25.3297 112.557 25.857 112.634 26.3592L112.761 26.8614C113.322 28.7948 114.75 29.8242 116.994 29.8242C118.906 29.8242 120.589 28.6692 121.329 26.8363V29.3723H127.831V29.1212L127.78 29.0961ZM153 29.3472V29.0961H152.975C151.674 28.7948 151.19 28.2424 151.19 27.1124V17.7969C151.19 14.8843 149.532 13.1517 146.752 13.1517C144.738 13.1517 143.029 14.3068 142.366 16.0895C141.856 14.1812 140.352 13.1517 138.108 13.1517C136.144 13.1517 134.615 14.1561 133.977 15.8886V13.202L127.475 14.9596V15.2107H127.525C128.902 15.3362 129.31 15.8133 129.31 17.3952V29.3472H135.38V29.0961H135.354C134.334 28.8701 134.002 28.4181 134.002 27.3133V16.6168C134.283 15.9891 134.818 15.2358 135.915 15.2358C137.266 15.2358 137.955 16.1648 137.955 17.9727V29.3472H144.024V29.0961H143.999C142.979 28.8701 142.647 28.4181 142.647 27.3133V17.7969C142.647 17.4454 142.621 17.0939 142.57 16.7424C142.851 16.0644 143.438 15.2609 144.56 15.2609C145.937 15.2609 146.6 16.1648 146.6 17.9978V29.3723H153V29.3472Z" fill="#2F2F2F"></path></svg> 